<?xml version="1.0" encoding="UTF-8"?>
<svg width="200" height="200" viewBox="0 0 200 200" fill="none" xmlns="http://www.w3.org/2000/svg">
    <!-- Central point -->
    <circle cx="100" cy="100" r="8" fill="white">
        <animate attributeName="opacity" values="1;0.6;1" dur="1.5s" repeatCount="indefinite"/>
    </circle>
    
    <!-- Electromagnetic waves -->
    <g>
        <!-- Wave 1 (innermost) -->
        <path d="M60 100C60 77.9086 77.9086 60 100 60C122.091 60 140 77.9086 140 100" 
              stroke="white" stroke-width="3" stroke-linecap="round">
            <animate attributeName="opacity" values="0;1;0" dur="2s" repeatCount="indefinite"/>
            <animate attributeName="stroke-width" values="4;2;4" dur="2s" repeatCount="indefinite"/>
        </path>
        
        <!-- Wave 2 -->
        <path d="M45 100C45 69.6243 69.6243 45 100 45C130.376 45 155 69.6243 155 100" 
              stroke="white" stroke-width="3" stroke-linecap="round">
            <animate attributeName="opacity" values="0;1;0" dur="2s" begin="0.4s" repeatCount="indefinite"/>
            <animate attributeName="stroke-width" values="4;2;4" dur="2s" begin="0.4s" repeatCount="indefinite"/>
        </path>
        
        <!-- Wave 3 -->
        <path d="M30 100C30 61.3401 61.3401 30 100 30C138.66 30 170 61.3401 170 100" 
              stroke="white" stroke-width="3" stroke-linecap="round">
            <animate attributeName="opacity" values="0;1;0" dur="2s" begin="0.8s" repeatCount="indefinite"/>
            <animate attributeName="stroke-width" values="4;2;4" dur="2s" begin="0.8s" repeatCount="indefinite"/>
        </path>
        
        <!-- Wave 4 (outermost) -->
        <path d="M15 100C15 53.0558 53.0558 15 100 15C146.944 15 185 53.0558 185 100" 
              stroke="white" stroke-width="3" stroke-linecap="round">
            <animate attributeName="opacity" values="0;1;0" dur="2s" begin="1.2s" repeatCount="indefinite"/>
            <animate attributeName="stroke-width" values="4;2;4" dur="2s" begin="1.2s" repeatCount="indefinite"/>
        </path>
    </g>
    
    <!-- Small signal indicators -->
    <g>
        <circle cx="100" cy="60" r="3" fill="white">
            <animate attributeName="opacity" values="1;0.3;1" dur="1s" repeatCount="indefinite"/>
        </circle>
        <circle cx="155" cy="100" r="3" fill="white">
            <animate attributeName="opacity" values="1;0.3;1" dur="1s" begin="0.33s" repeatCount="indefinite"/>
        </circle>
        <circle cx="45" cy="100" r="3" fill="white">
            <animate attributeName="opacity" values="1;0.3;1" dur="1s" begin="0.66s" repeatCount="indefinite"/>
        </circle>
    </g>
</svg>
